<?xml version="1.0" encoding="UTF-8" standalone="no"?>
<svg
   viewBox="0 0 128 128"
   version="1.1"
   id="svg13"
   width="128"
   height="128"
   sodipodi:docname="icon.svg"
   inkscape:export-filename="icon.svg"
   inkscape:export-xdpi="96"
   inkscape:export-ydpi="96"
   xmlns:inkscape="http://www.inkscape.org/namespaces/inkscape"
   xmlns:sodipodi="http://sodipodi.sourceforge.net/DTD/sodipodi-0.dtd"
   xmlns="http://www.w3.org/2000/svg"
   xmlns:svg="http://www.w3.org/2000/svg">
  <sodipodi:namedview
     id="namedview1"
     pagecolor="#ffffff"
     bordercolor="#000000"
     borderopacity="0.25"
     inkscape:showpageshadow="2"
     inkscape:pageopacity="0.0"
     inkscape:pagecheckerboard="true"
     inkscape:deskcolor="#d1d1d1" />
  <defs
     id="defs13" />
  <rect
     style="fill:#202531;fill-opacity:1;fill-rule:evenodd;stroke:#202531;stroke-width:0;stroke-miterlimit:100000;stroke-dasharray:none;stroke-opacity:1"
     id="rect2"
     width="127.08066"
     height="127.08066"
     x="0.45966986"
     y="0.45966986"
     ry="21.553328" />
  <rect
     style="fill:#363d52;fill-opacity:1;fill-rule:evenodd;stroke:#202531;stroke-width:0;stroke-miterlimit:100000;stroke-dasharray:none;stroke-opacity:1"
     id="rect1"
     width="101.47106"
     height="101.47106"
     x="13.264468"
     y="13.264468"
     ry="17.401497" />
  <path
     id="path2-4"
     style="fill:#ffffff;fill-opacity:1;stroke-width:0.183493"
     class=""
     d="m 20.960465,42.67685 c -0.499421,2.649124 -0.726703,5.051531 -0.731107,7.238667 v 7.34e-4 c -0.0015,0.809567 0.02968,1.618909 0.09354,2.425909 5.246785,3.990963 10.299607,7.351206 15.745301,8.482622 0.322031,-0.145694 0.645891,-0.299854 0.971225,-0.457658 C 30.914989,55.804556 24.930142,50.52776 20.960465,42.67685 Z m -5.037108,10.439048 c -0.908284,9.090194 2.817131,20.390311 5.415563,29.002692 l 0.42146,1.396628 -1.33391,0.590259 c -1.691797,0.749563 -3.248251,1.545013 -4.677288,2.385773 4.844403,10.922847 12.477909,18.39985 20.951565,23.9835 h 9.853806 l 0.222198,-1.29556 c 0,0 1.44238,0.24576 3.221885,0.38741 1.779872,0.14166 3.945807,0.10005 4.856478,-0.18565 1.682623,-0.52771 4.468364,-2.44023 6.639807,-4.22249 0.295237,-0.24276 0.588466,-0.48911 0.87912,-0.73756 0.75672,-1.37142 1.64052,-2.69794 2.657069,-3.98989 4.904737,-6.231393 12.710172,-11.68971 24.019701,-18.233217 1.193618,-3.055145 1.807281,-7.518864 1.909119,-11.819549 -0.262762,0.177985 -0.53788,0.337219 -0.823211,0.475937 -1.735467,0.838925 -4.049813,0.786061 -5.760328,-0.679858 -1.6195,-1.387571 -3.419484,-3.295809 -4.469423,-5.616616 -0.45928,-1.015079 -0.744275,-2.159962 -0.755835,-3.33119 -3.67e-4,-0.01395 7.34e-4,-0.02727 7.34e-4,-0.04122 L 67.664185,64.5319 c -1.655098,0.732866 -3.380438,0.774194 -4.93425,0.426478 -1.596746,-0.357808 -3.054257,-1.074946 -4.457239,-1.841027 -2.801557,-1.530324 -5.433886,-3.21543 -7.787355,-3.475619 -4.884556,-0.467905 -8.720868,2.344828 -13.580654,4.443977 l -0.458733,0.198193 -0.492421,-0.0896 C 28.468126,62.828389 22.221723,58.05954 15.923357,53.115898 Z m 71.513285,5.028146 c -1.843896,-0.05137 -4.090579,1.592098 -5.275432,2.523033 6.749959,-1.136922 7.14137,2.419288 7.745425,6.196482 0.446622,-1.637486 1.138542,-6.91393 -1.275851,-8.383708 -0.364625,-0.221977 -0.768604,-0.323952 -1.194142,-0.335807 z m -34.636149,3.206474 c 0.731881,-0.0071 1.456212,0.08211 2.161422,0.280974 l -0.896323,3.178519 c -1.417658,-0.400014 -3.777675,0.117448 -5.891138,1.55181 -2.113828,1.434172 -3.92112,3.676822 -4.562245,6.16351 l -3.197871,-0.824645 c 0.887364,-3.441398 3.210523,-6.243047 5.905472,-8.071914 2.021214,-1.371375 4.285036,-2.256923 6.480683,-2.278254 z m -1.121031,6.19039 a 3.6025128,4.5668855 74.803564 0 1 3.676318,1.751069 3.6025128,4.5668855 74.803564 0 1 -2.216254,5.057534 3.6025128,4.5668855 74.803564 0 1 -5.976435,-1.208474 3.6025128,4.5668855 74.803564 0 1 2.216255,-5.057533 3.6025128,4.5668855 74.803564 0 1 2.300116,-0.542596 z m 8.248241,42.927032 c -0.0035,0.002 -0.0072,0.005 -0.01075,0.007 h 0.009 c 5.51e-4,-0.002 0.0011,-0.004 0.0018,-0.007 z" />
  <path
     id="rect6-7"
     style="fill:#ffffff;fill-opacity:1;fill-rule:evenodd;stroke:#202531;stroke-width:0;stroke-miterlimit:100000"
     d="m 45.467019,16.877007 c -5.034228,0 -9.086861,4.052634 -9.086861,9.086859 V 43.18679 c 0,5.034227 4.052633,9.087219 9.086861,9.087219 h 48.231854 v 20.838315 l 14.716377,-25.48908 c 0.0239,-0.04283 0.0502,-0.08397 0.0735,-0.127227 l 0.0616,-0.106801 h -0.0104 c 0.65393,-1.256167 1.02857,-2.683015 1.02857,-4.202426 V 25.963866 c 0,-5.034225 -4.053,-9.086859 -9.08722,-9.086859 z m -0.785222,6.796419 h 56.311293 c 1.97673,0 3.56808,1.591356 3.56808,3.568083 0,1.976728 -1.59135,3.568086 -3.56808,3.568086 H 44.681797 c -1.976728,0 -3.568084,-1.591358 -3.568084,-3.568086 0,-1.976727 1.591356,-3.568083 3.568084,-3.568083 z m 0,12.715153 h 19.981416 c 1.976727,0 3.568084,1.591358 3.568084,3.568083 0,1.97673 -1.591357,3.568086 -3.568084,3.568086 H 44.681797 c -1.976728,0 -3.568084,-1.591356 -3.568084,-3.568086 0,-1.976725 1.591356,-3.568083 3.568084,-3.568083 z m 33.734812,0 h 22.057541 c 1.97673,0 3.56808,1.591358 3.56808,3.568083 0,1.97673 -1.59135,3.568086 -3.56808,3.568086 H 78.416609 c -1.976727,0 -3.568086,-1.591356 -3.568086,-3.568086 0,-1.976725 1.591359,-3.568083 3.568086,-3.568083 z" />
</svg>
