<?xml version="1.0" encoding="UTF-8" standalone="no"?>
<svg
   viewBox="0 0 16 16"
   version="1.1"
   id="svg13"
   width="16"
   height="16"
   sodipodi:docname="PupDialogue.svg"
   inkscape:export-filename="PupDialogue.svg"
   inkscape:export-xdpi="96"
   inkscape:export-ydpi="96"
   xmlns:inkscape="http://www.inkscape.org/namespaces/inkscape"
   xmlns:sodipodi="http://sodipodi.sourceforge.net/DTD/sodipodi-0.dtd"
   xmlns="http://www.w3.org/2000/svg"
   xmlns:svg="http://www.w3.org/2000/svg">
  <sodipodi:namedview
     id="namedview1"
     pagecolor="#ffffff"
     bordercolor="#000000"
     borderopacity="0.25"
     inkscape:showpageshadow="2"
     inkscape:pageopacity="0.0"
     inkscape:pagecheckerboard="true"
     inkscape:deskcolor="#d1d1d1" />
  <defs
     id="defs13" />
  <path
     id="path2"
     style="fill:#ffffff;fill-opacity:1;stroke-width:0.0293805"
     class=""
     d="M 1.0684324,5.1213125 C 0.98846632,5.5454843 0.95207438,5.9301526 0.95136925,6.2803518 v 1.176e-4 c -2.3506e-4,0.129626 0.004753,0.2592163 0.0149773,0.3884312 C 1.8064503,7.3079247 2.615497,7.8459594 3.4874493,8.0271195 3.539012,8.0037935 3.5908679,7.9791095 3.6429596,7.9538403 2.6623287,7.2232918 1.7040484,6.3783829 1.0684324,5.1213125 Z M 0.26190212,6.7927899 C 0.11646948,8.2482912 0.71297477,10.057642 1.1290297,11.436637 l 0.067484,0.223625 -0.21358284,0.09451 C 0.71204417,11.87479 0.46282805,12.002156 0.23401406,12.136777 1.0096891,13.885719 2.231949,15.082921 3.5887321,15.976962 h 1.5777691 l 0.035578,-0.207443 c 0,0 0.2309507,0.03935 0.5158811,0.06203 0.2849891,0.02268 0.6317938,0.01602 0.7776085,-0.02973 0.2694178,-0.0845 0.7154643,-0.390726 1.0631508,-0.676096 0.047273,-0.03887 0.094224,-0.07831 0.1407634,-0.118096 0.1211641,-0.219589 0.2626759,-0.431988 0.4254439,-0.638855 0.7853353,-0.997756 2.0351241,-1.87173 3.8459811,-2.919461 0.191119,-0.489183 0.289377,-1.203905 0.305683,-1.892521 -0.04207,0.028498 -0.08612,0.053999 -0.131811,0.076206 C 11.866902,9.7673291 11.496334,9.7588641 11.22245,9.5241447 10.963139,9.3019703 10.674929,8.9964271 10.506816,8.624825 10.433276,8.4622925 10.387644,8.2789761 10.385793,8.0914417 c -5.9e-5,-0.00224 1.18e-4,-0.00433 1.18e-4,-0.00657 L 8.5465288,8.6207182 C 8.2815182,8.7380632 8.0052606,8.744681 7.7564676,8.6890057 7.5008003,8.6316906 7.2674266,8.516864 7.0427841,8.3942008 6.594205,8.1491686 6.1727223,7.8793533 5.7958902,7.8376924 5.0137859,7.7627727 4.3995243,8.2131412 3.621386,8.5492523 L 3.547935,8.5809863 3.46909,8.5666403 C 2.2705424,8.3479325 1.2703822,7.5843548 0.26190212,6.7927899 Z M 11.712451,7.5978852 c -0.295242,-0.00823 -0.654975,0.2549232 -0.844691,0.4039824 1.080788,-0.1820413 1.14346,0.3873711 1.24018,0.992167 C 12.17945,8.7318441 12.290241,7.8869918 11.903653,7.651654 11.845273,7.616113 11.780586,7.599786 11.712451,7.597887 Z M 6.1665871,8.1112988 c 0.1171873,-0.00116 0.2331654,0.013147 0.3460822,0.04499 L 6.3691521,8.6652268 C 6.1421599,8.6011762 5.7642791,8.6840306 5.4258761,8.9136976 5.0874147,9.1433343 4.7980351,9.5024225 4.6953795,9.9005854 L 4.1833435,9.7685449 C 4.3254263,9.2175158 4.6974053,8.7689222 5.1289147,8.476088 5.4525469,8.2565062 5.8150252,8.1147142 6.1665871,8.1112988 Z M 5.9870903,9.1024905 A 0.57682636,0.73123958 74.803564 0 1 6.575734,9.3828678 0.57682636,0.73123958 74.803564 0 1 6.2208724,10.192669 0.57682636,0.73123958 74.803564 0 1 5.2639389,9.9991706 0.57682636,0.73123958 74.803564 0 1 5.6188008,9.1893693 0.57682636,0.73123958 74.803564 0 1 5.9870903,9.1024905 Z m 1.3206898,6.8733825 c -5.7e-4,3.79e-4 -0.00116,7.14e-4 -0.00173,0.0011 h 0.00144 c 8.82e-5,-3.61e-4 1.77e-4,-7.22e-4 2.941e-4,-0.0011 z" />
  <path
     id="rect6"
     style="fill:#ffffff;fill-opacity:1;fill-rule:evenodd;stroke:#202531;stroke-width:0;stroke-miterlimit:100000"
     d="m 5.0795728,0.05046549 c -0.8509356,0 -1.5359523,0.72111156 -1.5359523,1.61688411 v 3.0645868 c 0,0.8957728 0.6850167,1.6169481 1.5359523,1.6169481 h 8.1526312 v 3.7078975 l 2.48751,-4.5354386 c 0.004,-0.00763 0.0085,-0.014942 0.01242,-0.022638 l 0.01046,-0.019003 h -0.0018 C 15.851354,5.256184 15.91468,5.0022958 15.91468,4.7319372 V 1.6673496 c 0,-0.89577255 -0.685078,-1.61688411 -1.536014,-1.61688411 z M 4.9468467,1.2597966 h 9.5182993 c 0.334126,0 0.603114,0.2831604 0.603114,0.6348924 0,0.3517319 -0.268988,0.6348925 -0.603114,0.6348925 H 4.9468467 c -0.3341263,0 -0.6031134,-0.2831606 -0.6031134,-0.6348925 0,-0.351732 0.2689871,-0.6348924 0.6031134,-0.6348924 z m 0,2.2624899 h 3.3774589 c 0.3341269,0 0.6031134,0.2831607 0.6031134,0.6348923 0,0.3517323 -0.2689865,0.6348926 -0.6031134,0.6348926 H 4.9468467 c -0.3341263,0 -0.6031134,-0.2831603 -0.6031134,-0.6348926 0,-0.3517316 0.2689871,-0.6348923 0.6031134,-0.6348923 z m 5.7021963,0 h 3.728386 c 0.334126,0 0.603114,0.2831607 0.603114,0.6348923 0,0.3517323 -0.268988,0.6348926 -0.603114,0.6348926 h -3.728386 c -0.334126,0 -0.603114,-0.2831603 -0.603114,-0.6348926 0,-0.3517316 0.268988,-0.6348923 0.603114,-0.6348923 z" />
</svg>
